<svg data-v-fde0c5aa="" xmlns="http://www.w3.org/2000/svg" viewBox="0 0 300 300" class="font"><!----><defs data-v-fde0c5aa=""><!----></defs><rect data-v-fde0c5aa="" fill="#81AAD9" x="0" y="0" width="300px" height="300px" class="logo-background-square"></rect><defs data-v-fde0c5aa=""><!----></defs><g data-v-fde0c5aa="" id="6533d018-38d4-4cca-984a-5101a43a00cf" fill="#F2CCB1" transform="matrix(2.4531668069954606,0,0,2.4531668069954606,36.39384472353101,126.32693949366104)"><path d="M1.47 13.55L1.47 3.75L5.60 3.75L5.60 3.75Q7.15 3.75 8.36 4.37L8.36 4.37L8.36 4.37Q9.56 4.98 10.23 6.10L10.23 6.10L10.23 6.10Q10.89 7.21 10.89 8.65L10.89 8.65L10.89 8.65Q10.89 10.09 10.23 11.21L10.23 11.21L10.23 11.21Q9.56 12.32 8.36 12.94L8.36 12.94L8.36 12.94Q7.15 13.55 5.60 13.55L5.60 13.55L1.47 13.55ZM2.87 12.33L5.52 12.33L5.52 12.33Q6.71 12.33 7.61 11.87L7.61 11.87L7.61 11.87Q8.51 11.41 9.00 10.58L9.00 10.58L9.00 10.58Q9.49 9.74 9.49 8.65L9.49 8.65L9.49 8.65Q9.49 7.56 9.00 6.73L9.00 6.73L9.00 6.73Q8.51 5.89 7.61 5.43L7.61 5.43L7.61 5.43Q6.71 4.97 5.52 4.97L5.52 4.97L2.87 4.97L2.87 12.33ZM15.54 6.06L15.54 6.06Q17.08 6.06 17.90 6.82L17.90 6.82L17.90 6.82Q18.72 7.57 18.72 9.07L18.72 9.07L18.72 13.55L17.44 13.55L17.44 12.57L17.44 12.57Q17.11 13.09 16.48 13.36L16.48 13.36L16.48 13.36Q15.86 13.64 15.01 13.64L15.01 13.64L15.01 13.64Q13.76 13.64 13.01 13.03L13.01 13.03L13.01 13.03Q12.26 12.43 12.26 11.45L12.26 11.45L12.26 11.45Q12.26 10.47 12.98 9.88L12.98 9.88L12.98 9.88Q13.69 9.28 15.25 9.28L15.25 9.28L17.37 9.28L17.37 9.02L17.37 9.02Q17.37 8.15 16.87 7.69L16.87 7.69L16.87 7.69Q16.37 7.22 15.39 7.22L15.39 7.22L15.39 7.22Q14.73 7.22 14.10 7.44L14.10 7.44L14.10 7.44Q13.47 7.66 13.03 8.02L13.03 8.02L12.47 7.01L12.47 7.01Q13.05 6.55 13.85 6.31L13.85 6.31L13.85 6.31Q14.64 6.06 15.54 6.06L15.54 6.06ZM15.23 12.60L15.23 12.60Q16.00 12.60 16.56 12.26L16.56 12.26L16.56 12.26Q17.12 11.91 17.37 11.28L17.37 11.28L17.37 10.25L15.30 10.25L15.30 10.25Q13.59 10.25 13.59 11.40L13.59 11.40L13.59 11.40Q13.59 11.96 14.03 12.28L14.03 12.28L14.03 12.28Q14.46 12.60 15.23 12.60L15.23 12.60ZM21.21 13.55L21.21 6.13L22.55 6.13L22.55 13.55L21.21 13.55ZM21.88 4.70L21.88 4.70Q21.49 4.70 21.23 4.45L21.23 4.45L21.23 4.45Q20.97 4.20 20.97 3.84L20.97 3.84L20.97 3.84Q20.97 3.47 21.23 3.21L21.23 3.21L21.23 3.21Q21.49 2.95 21.88 2.95L21.88 2.95L21.88 2.95Q22.27 2.95 22.53 3.20L22.53 3.20L22.53 3.20Q22.79 3.44 22.79 3.81L22.79 3.81L22.79 3.81Q22.79 4.19 22.53 4.45L22.53 4.45L22.53 4.45Q22.27 4.70 21.88 4.70L21.88 4.70ZM25.12 13.55L25.12 3.16L26.46 3.16L26.46 13.55L25.12 13.55ZM34.27 6.13L35.59 6.13L31.99 14.29L31.99 14.29Q31.51 15.43 30.88 15.89L30.88 15.89L30.88 15.89Q30.24 16.35 29.34 16.35L29.34 16.35L29.34 16.35Q28.80 16.35 28.29 16.18L28.29 16.18L28.29 16.18Q27.78 16.00 27.44 15.67L27.44 15.67L28.01 14.66L28.01 14.66Q28.59 15.20 29.34 15.20L29.34 15.20L29.34 15.20Q29.83 15.20 30.16 14.95L30.16 14.95L30.16 14.95Q30.49 14.69 30.76 14.06L30.76 14.06L31.00 13.54L27.72 6.13L29.12 6.13L31.71 12.07L34.27 6.13ZM42.07 13.66L42.07 13.66Q41.19 13.66 40.43 13.29L40.43 13.29L40.43 13.29Q39.68 12.92 39.21 12.25L39.21 12.25L40.03 11.30L40.03 11.30Q40.84 12.46 42.07 12.46L42.07 12.46L42.07 12.46Q42.90 12.46 43.32 11.96L43.32 11.96L43.32 11.96Q43.75 11.45 43.75 10.47L43.75 10.47L43.75 4.97L40.21 4.97L40.21 3.75L45.14 3.75L45.14 10.40L45.14 10.40Q45.14 12.03 44.36 12.84L44.36 12.84L44.36 12.84Q43.58 13.66 42.07 13.66L42.07 13.66ZM50.97 13.64L50.97 13.64Q49.87 13.64 48.99 13.15L48.99 13.15L48.99 13.15Q48.10 12.66 47.61 11.79L47.61 11.79L47.61 11.79Q47.11 10.93 47.11 9.84L47.11 9.84L47.11 9.84Q47.11 8.75 47.61 7.89L47.61 7.89L47.61 7.89Q48.10 7.03 48.99 6.54L48.99 6.54L48.99 6.54Q49.87 6.06 50.97 6.06L50.97 6.06L50.97 6.06Q52.08 6.06 52.95 6.54L52.95 6.54L52.95 6.54Q53.83 7.03 54.33 7.89L54.33 7.89L54.33 7.89Q54.82 8.75 54.82 9.84L54.82 9.84L54.82 9.84Q54.82 10.93 54.33 11.79L54.33 11.79L54.33 11.79Q53.83 12.66 52.95 13.15L52.95 13.15L52.95 13.15Q52.08 13.64 50.97 13.64L50.97 13.64ZM50.97 12.46L50.97 12.46Q51.69 12.46 52.25 12.13L52.25 12.13L52.25 12.13Q52.82 11.80 53.14 11.21L53.14 11.21L53.14 11.21Q53.47 10.61 53.47 9.84L53.47 9.84L53.47 9.84Q53.47 9.07 53.14 8.48L53.14 8.48L53.14 8.48Q52.82 7.88 52.25 7.56L52.25 7.56L52.25 7.56Q51.69 7.24 50.97 7.24L50.97 7.24L50.97 7.24Q50.26 7.24 49.69 7.56L49.69 7.56L49.69 7.56Q49.13 7.88 48.80 8.48L48.80 8.48L48.80 8.48Q48.47 9.07 48.47 9.84L48.47 9.84L48.47 9.84Q48.47 10.61 48.80 11.21L48.80 11.21L48.80 11.21Q49.13 11.80 49.69 12.13L49.69 12.13L49.69 12.13Q50.26 12.46 50.97 12.46L50.97 12.46ZM62.26 6.13L63.60 6.13L63.60 13.55L62.33 13.55L62.33 12.43L62.33 12.43Q61.92 13.01 61.26 13.32L61.26 13.32L61.26 13.32Q60.59 13.64 59.81 13.64L59.81 13.64L59.81 13.64Q58.32 13.64 57.47 12.82L57.47 12.82L57.47 12.82Q56.62 12.00 56.62 10.40L56.62 10.40L56.62 6.13L57.96 6.13L57.96 10.25L57.96 10.25Q57.96 11.33 58.48 11.88L58.48 11.88L58.48 11.88Q59.00 12.43 59.96 12.43L59.96 12.43L59.96 12.43Q61.03 12.43 61.64 11.79L61.64 11.79L61.64 11.79Q62.26 11.14 62.26 9.97L62.26 9.97L62.26 6.13ZM67.45 7.38L67.45 7.38Q67.80 6.73 68.49 6.40L68.49 6.40L68.49 6.40Q69.17 6.06 70.15 6.06L70.15 6.06L70.15 7.36L70.15 7.36Q70.04 7.35 69.85 7.35L69.85 7.35L69.85 7.35Q68.75 7.35 68.13 8.00L68.13 8.00L68.13 8.00Q67.51 8.65 67.51 9.86L67.51 9.86L67.51 13.55L66.16 13.55L66.16 6.13L67.45 6.13L67.45 7.38ZM75.87 6.06L75.87 6.06Q77.28 6.06 78.11 6.88L78.11 6.88L78.11 6.88Q78.95 7.70 78.95 9.28L78.95 9.28L78.95 13.55L77.60 13.55L77.60 9.44L77.60 9.44Q77.60 8.36 77.08 7.81L77.08 7.81L77.08 7.81Q76.57 7.27 75.60 7.27L75.60 7.27L75.60 7.27Q74.51 7.27 73.88 7.90L73.88 7.90L73.88 7.90Q73.25 8.54 73.25 9.73L73.25 9.73L73.25 13.55L71.90 13.55L71.90 6.13L73.19 6.13L73.19 7.25L73.19 7.25Q73.60 6.68 74.29 6.37L74.29 6.37L74.29 6.37Q74.98 6.06 75.87 6.06L75.87 6.06ZM84.14 6.06L84.14 6.06Q85.68 6.06 86.50 6.82L86.50 6.82L86.50 6.82Q87.32 7.57 87.32 9.07L87.32 9.07L87.32 13.55L86.04 13.55L86.04 12.57L86.04 12.57Q85.71 13.09 85.09 13.36L85.09 13.36L85.09 13.36Q84.46 13.64 83.61 13.64L83.61 13.64L83.61 13.64Q82.36 13.64 81.61 13.03L81.61 13.03L81.61 13.03Q80.86 12.43 80.86 11.45L80.86 11.45L80.86 11.45Q80.86 10.47 81.58 9.88L81.58 9.88L81.58 9.88Q82.29 9.28 83.85 9.28L83.85 9.28L85.97 9.28L85.97 9.02L85.97 9.02Q85.97 8.15 85.47 7.69L85.47 7.69L85.47 7.69Q84.97 7.22 83.99 7.22L83.99 7.22L83.99 7.22Q83.33 7.22 82.70 7.44L82.70 7.44L82.70 7.44Q82.07 7.66 81.63 8.02L81.63 8.02L81.07 7.01L81.07 7.01Q81.65 6.55 82.45 6.31L82.45 6.31L82.45 6.31Q83.24 6.06 84.14 6.06L84.14 6.06ZM83.83 12.60L83.83 12.60Q84.60 12.60 85.16 12.26L85.16 12.26L85.16 12.26Q85.72 11.91 85.97 11.28L85.97 11.28L85.97 10.25L83.90 10.25L83.90 10.25Q82.19 10.25 82.19 11.40L82.19 11.40L82.19 11.40Q82.19 11.96 82.63 12.28L82.63 12.28L82.63 12.28Q83.06 12.60 83.83 12.60L83.83 12.60ZM89.81 13.55L89.81 3.16L91.15 3.16L91.15 13.55L89.81 13.55Z"></path></g><!----><!----></svg>